<svg xmlns="http://www.w3.org/2000/svg" width="1266" height="861" viewBox="0 0 1266 861"><rect width="1266" height="861" fill="#ffffff"/><rect x="4" y="4" width="1258" height="853" rx="14" fill="#fbfbfc" stroke="#e5e5e8" stroke-width="2"/><g><rect x="150" y="20" width="604" height="322" rx="12" fill="#0d6b8a" stroke="#0a4f66" stroke-width="2"/><rect x="156" y="26" width="592" height="310" rx="9" fill="none" stroke="#2a8aa8" stroke-width="1" opacity="0.5"/><rect x="136" y="60" width="60" height="52" rx="4" fill="#b9bcc2" stroke="#8a8d93" stroke-width="1.5"/><rect x="140" y="170" width="52" height="40" rx="8" fill="#1b1d22" stroke="#000" stroke-width="1"/><rect x="300" y="170" width="150" height="46" rx="3" fill="#15171b"/><circle cx="310" cy="193" r="4" fill="#2a2c30"/><circle cx="400" cy="60" r="7" fill="#c0392b"/><rect x="220" y="170" width="34" height="34" rx="2" fill="#15171b"/><text x="450" y="138" font-family="Arial Black, Arial, sans-serif" font-size="30" font-weight="800" fill="#fff" text-anchor="middle">ELEGOO</text><text x="450" y="162" font-family="Arial, Helvetica, sans-serif" font-size="15" font-weight="700" fill="#dfe7ea" text-anchor="middle">UNO R3</text><circle cx="168" cy="100" r="6" fill="#eef2f3" stroke="#9aa" stroke-width="1"/><circle cx="730" cy="60" r="6" fill="#eef2f3" stroke="#9aa" stroke-width="1"/><circle cx="730" cy="80" r="6" fill="#eef2f3" stroke="#9aa" stroke-width="1"/><circle cx="400" cy="324" r="6" fill="#eef2f3" stroke="#9aa" stroke-width="1"/><rect x="220" y="50" width="454" height="24" rx="3" fill="#111318"/><rect x="180" y="300" width="524" height="24" rx="3" fill="#111318"/><circle cx="356" cy="58" r="4.6" fill="#e6e8ea" stroke="#2a2a2a" stroke-width="1"/><circle cx="356" cy="58" r="1.8" fill="#111"/><text x="359" y="46" font-family="Arial, Helvetica, sans-serif" font-size="9.5" font-weight="400" fill="#f2f6f8" text-anchor="start" transform="rotate(-90 359 46)">AREF</text><circle cx="372" cy="58" r="4.6" fill="#e6e8ea" stroke="#2a2a2a" stroke-width="1"/><circle cx="372" cy="58" r="1.8" fill="#111"/><text x="375" y="46" font-family="Arial, Helvetica, sans-serif" font-size="9.5" font-weight="400" fill="#f2f6f8" text-anchor="start" transform="rotate(-90 375 46)">GND</text><circle cx="387" cy="58" r="4.6" fill="#e6e8ea" stroke="#2a2a2a" stroke-width="1"/><circle cx="387" cy="58" r="1.8" fill="#111"/><text x="390" y="46" font-family="Arial, Helvetica, sans-serif" font-size="9.5" font-weight="400" fill="#f2f6f8" text-anchor="start" transform="rotate(-90 390 46)">13</text><circle cx="403" cy="58" r="4.6" fill="#e6e8ea" stroke="#2a2a2a" stroke-width="1"/><circle cx="403" cy="58" r="1.8" fill="#111"/><text x="406" y="46" font-family="Arial, Helvetica, sans-serif" font-size="9.5" font-weight="400" fill="#f2f6f8" text-anchor="start" transform="rotate(-90 406 46)">12</text><circle cx="418" cy="58" r="4.6" fill="#e6e8ea" stroke="#2a2a2a" stroke-width="1"/><circle cx="418" cy="58" r="1.8" fill="#111"/><text x="421" y="46" font-family="Arial, Helvetica, sans-serif" font-size="9.5" font-weight="400" fill="#f2f6f8" text-anchor="start" transform="rotate(-90 421 46)">~11</text><circle cx="434" cy="58" r="4.6" fill="#e6e8ea" stroke="#2a2a2a" stroke-width="1"/><circle cx="434" cy="58" r="1.8" fill="#111"/><text x="437" y="46" font-family="Arial, Helvetica, sans-serif" font-size="9.5" font-weight="400" fill="#f2f6f8" text-anchor="start" transform="rotate(-90 437 46)">~10</text><circle cx="450" cy="58" r="4.6" fill="#e6e8ea" stroke="#2a2a2a" stroke-width="1"/><circle cx="450" cy="58" r="1.8" fill="#111"/><text x="453" y="46" font-family="Arial, Helvetica, sans-serif" font-size="9.5" font-weight="400" fill="#f2f6f8" text-anchor="start" transform="rotate(-90 453 46)">~9</text><circle cx="465" cy="58" r="4.6" fill="#e6e8ea" stroke="#2a2a2a" stroke-width="1"/><circle cx="465" cy="58" r="1.8" fill="#111"/><text x="468" y="46" font-family="Arial, Helvetica, sans-serif" font-size="9.5" font-weight="400" fill="#f2f6f8" text-anchor="start" transform="rotate(-90 468 46)">8</text><circle cx="493" cy="58" r="4.6" fill="#e6e8ea" stroke="#2a2a2a" stroke-width="1"/><circle cx="493" cy="58" r="1.8" fill="#111"/><text x="496" y="46" font-family="Arial, Helvetica, sans-serif" font-size="9.5" font-weight="400" fill="#f2f6f8" text-anchor="start" transform="rotate(-90 496 46)">7</text><circle cx="508" cy="58" r="4.6" fill="#e6e8ea" stroke="#2a2a2a" stroke-width="1"/><circle cx="508" cy="58" r="1.8" fill="#111"/><text x="511" y="46" font-family="Arial, Helvetica, sans-serif" font-size="9.5" font-weight="400" fill="#f2f6f8" text-anchor="start" transform="rotate(-90 511 46)">~6</text><circle cx="524" cy="58" r="4.6" fill="#e6e8ea" stroke="#2a2a2a" stroke-width="1"/><circle cx="524" cy="58" r="1.8" fill="#111"/><text x="527" y="46" font-family="Arial, Helvetica, sans-serif" font-size="9.5" font-weight="400" fill="#f2f6f8" text-anchor="start" transform="rotate(-90 527 46)">~5</text><circle cx="540" cy="58" r="4.6" fill="#e6e8ea" stroke="#2a2a2a" stroke-width="1"/><circle cx="540" cy="58" r="1.8" fill="#111"/><text x="543" y="46" font-family="Arial, Helvetica, sans-serif" font-size="9.5" font-weight="400" fill="#f2f6f8" text-anchor="start" transform="rotate(-90 543 46)">4</text><circle cx="555" cy="58" r="4.6" fill="#e6e8ea" stroke="#2a2a2a" stroke-width="1"/><circle cx="555" cy="58" r="1.8" fill="#111"/><text x="558" y="46" font-family="Arial, Helvetica, sans-serif" font-size="9.5" font-weight="400" fill="#f2f6f8" text-anchor="start" transform="rotate(-90 558 46)">~3</text><circle cx="571" cy="58" r="4.6" fill="#e6e8ea" stroke="#2a2a2a" stroke-width="1"/><circle cx="571" cy="58" r="1.8" fill="#111"/><text x="574" y="46" font-family="Arial, Helvetica, sans-serif" font-size="9.5" font-weight="400" fill="#f2f6f8" text-anchor="start" transform="rotate(-90 574 46)">2</text><circle cx="586" cy="58" r="4.6" fill="#e6e8ea" stroke="#2a2a2a" stroke-width="1"/><circle cx="586" cy="58" r="1.8" fill="#111"/><text x="589" y="46" font-family="Arial, Helvetica, sans-serif" font-size="9.5" font-weight="400" fill="#f2f6f8" text-anchor="start" transform="rotate(-90 589 46)">TX1</text><circle cx="602" cy="58" r="4.6" fill="#e6e8ea" stroke="#2a2a2a" stroke-width="1"/><circle cx="602" cy="58" r="1.8" fill="#111"/><text x="605" y="46" font-family="Arial, Helvetica, sans-serif" font-size="9.5" font-weight="400" fill="#f2f6f8" text-anchor="start" transform="rotate(-90 605 46)">RX0</text><circle cx="300" cy="306" r="4.6" fill="#e6e8ea" stroke="#2a2a2a" stroke-width="1"/><circle cx="300" cy="306" r="1.8" fill="#111"/><text x="303" y="352" font-family="Arial, Helvetica, sans-serif" font-size="9.5" font-weight="400" fill="#3a3a3f" text-anchor="end" transform="rotate(-90 303 352)">IOREF</text><circle cx="316" cy="306" r="4.6" fill="#e6e8ea" stroke="#2a2a2a" stroke-width="1"/><circle cx="316" cy="306" r="1.8" fill="#111"/><text x="319" y="352" font-family="Arial, Helvetica, sans-serif" font-size="9.5" font-weight="400" fill="#3a3a3f" text-anchor="end" transform="rotate(-90 319 352)">RESET</text><circle cx="331" cy="306" r="4.6" fill="#e6e8ea" stroke="#2a2a2a" stroke-width="1"/><circle cx="331" cy="306" r="1.8" fill="#111"/><text x="334" y="352" font-family="Arial, Helvetica, sans-serif" font-size="9.5" font-weight="400" fill="#3a3a3f" text-anchor="end" transform="rotate(-90 334 352)">3.3V</text><circle cx="347" cy="306" r="4.6" fill="#e6e8ea" stroke="#2a2a2a" stroke-width="1"/><circle cx="347" cy="306" r="1.8" fill="#111"/><text x="350" y="352" font-family="Arial, Helvetica, sans-serif" font-size="9.5" font-weight="400" fill="#3a3a3f" text-anchor="end" transform="rotate(-90 350 352)">5V</text><circle cx="362" cy="306" r="4.6" fill="#e6e8ea" stroke="#2a2a2a" stroke-width="1"/><circle cx="362" cy="306" r="1.8" fill="#111"/><text x="365" y="352" font-family="Arial, Helvetica, sans-serif" font-size="9.5" font-weight="400" fill="#3a3a3f" text-anchor="end" transform="rotate(-90 365 352)">GND</text><circle cx="378" cy="306" r="4.6" fill="#e6e8ea" stroke="#2a2a2a" stroke-width="1"/><circle cx="378" cy="306" r="1.8" fill="#111"/><text x="381" y="352" font-family="Arial, Helvetica, sans-serif" font-size="9.5" font-weight="400" fill="#3a3a3f" text-anchor="end" transform="rotate(-90 381 352)">GND</text><circle cx="394" cy="306" r="4.6" fill="#e6e8ea" stroke="#2a2a2a" stroke-width="1"/><circle cx="394" cy="306" r="1.8" fill="#111"/><text x="397" y="352" font-family="Arial, Helvetica, sans-serif" font-size="9.5" font-weight="400" fill="#3a3a3f" text-anchor="end" transform="rotate(-90 397 352)">Vin</text><circle cx="433" cy="306" r="4.6" fill="#e6e8ea" stroke="#2a2a2a" stroke-width="1"/><circle cx="433" cy="306" r="1.8" fill="#111"/><text x="436" y="352" font-family="Arial, Helvetica, sans-serif" font-size="9.5" font-weight="400" fill="#3a3a3f" text-anchor="end" transform="rotate(-90 436 352)">A0</text><circle cx="449" cy="306" r="4.6" fill="#e6e8ea" stroke="#2a2a2a" stroke-width="1"/><circle cx="449" cy="306" r="1.8" fill="#111"/><text x="452" y="352" font-family="Arial, Helvetica, sans-serif" font-size="9.5" font-weight="400" fill="#3a3a3f" text-anchor="end" transform="rotate(-90 452 352)">A1</text><circle cx="464" cy="306" r="4.6" fill="#e6e8ea" stroke="#2a2a2a" stroke-width="1"/><circle cx="464" cy="306" r="1.8" fill="#111"/><text x="467" y="352" font-family="Arial, Helvetica, sans-serif" font-size="9.5" font-weight="400" fill="#3a3a3f" text-anchor="end" transform="rotate(-90 467 352)">A2</text><circle cx="480" cy="306" r="4.6" fill="#e6e8ea" stroke="#2a2a2a" stroke-width="1"/><circle cx="480" cy="306" r="1.8" fill="#111"/><text x="483" y="352" font-family="Arial, Helvetica, sans-serif" font-size="9.5" font-weight="400" fill="#3a3a3f" text-anchor="end" transform="rotate(-90 483 352)">A3</text><circle cx="496" cy="306" r="4.6" fill="#e6e8ea" stroke="#2a2a2a" stroke-width="1"/><circle cx="496" cy="306" r="1.8" fill="#111"/><text x="499" y="352" font-family="Arial, Helvetica, sans-serif" font-size="9.5" font-weight="400" fill="#3a3a3f" text-anchor="end" transform="rotate(-90 499 352)">A4</text><circle cx="511" cy="306" r="4.6" fill="#e6e8ea" stroke="#2a2a2a" stroke-width="1"/><circle cx="511" cy="306" r="1.8" fill="#111"/><text x="514" y="352" font-family="Arial, Helvetica, sans-serif" font-size="9.5" font-weight="400" fill="#3a3a3f" text-anchor="end" transform="rotate(-90 514 352)">A5</text></g><g><rect x="858" y="430" width="210" height="112" rx="7" fill="#20232a" stroke="#000002" stroke-width="2"/><rect x="862" y="434" width="202" height="104" rx="5" fill="none" stroke="#393c43" stroke-width="1" opacity="0.5"/><rect x="858" y="438" width="14" height="96" rx="3" fill="#111318"/><circle cx="865" cy="446" r="4.4" fill="#d9dbde" stroke="#222" stroke-width="1"/><circle cx="865" cy="446" r="1.8" fill="#111"/><text x="879" y="449" font-family="Arial, Helvetica, sans-serif" font-size="11" font-weight="700" fill="#eef" text-anchor="start">S</text><circle cx="865" cy="486" r="4.4" fill="#d9dbde" stroke="#222" stroke-width="1"/><circle cx="865" cy="486" r="1.8" fill="#111"/><text x="879" y="489" font-family="Arial, Helvetica, sans-serif" font-size="11" font-weight="700" fill="#eef" text-anchor="start">+</text><circle cx="865" cy="526" r="4.4" fill="#d9dbde" stroke="#222" stroke-width="1"/><circle cx="865" cy="526" r="1.8" fill="#111"/><text x="879" y="529" font-family="Arial, Helvetica, sans-serif" font-size="11" font-weight="700" fill="#eef" text-anchor="start">−</text><text x="977" y="454" font-family="Arial, Helvetica, sans-serif" font-size="15" font-weight="800" fill="#eaf3ee" text-anchor="middle">IR receiver</text></g><ellipse cx="1022" cy="486" rx="18" ry="22" fill="#0a0a0a" stroke="#000"/><g><path d="M 418 58 C 641.5 58, 641.5 446, 865 446" fill="none" stroke="#006308" stroke-width="8" stroke-linecap="round"/><path d="M 418 58 C 641.5 58, 641.5 446, 865 446" fill="none" stroke="#159a3f" stroke-width="6" stroke-linecap="round"/><circle cx="418" cy="58" r="3.4" fill="#007217"/><circle cx="865" cy="446" r="3.4" fill="#007217"/></g><g><path d="M 347 306 C 606 306, 606 486, 865 486" fill="none" stroke="#9b0000" stroke-width="8" stroke-linecap="round"/><path d="M 347 306 C 606 306, 606 486, 865 486" fill="none" stroke="#d21f24" stroke-width="6" stroke-linecap="round"/><circle cx="347" cy="306" r="3.4" fill="#aa0000"/><circle cx="865" cy="486" r="3.4" fill="#aa0000"/></g><g><path d="M 362 306 C 613.5 306, 613.5 526, 865 526" fill="none" stroke="#000000" stroke-width="8" stroke-linecap="round"/><path d="M 362 306 C 613.5 306, 613.5 526, 865 526" fill="none" stroke="#222428" stroke-width="6" stroke-linecap="round"/><circle cx="362" cy="306" r="3.4" fill="#000000"/><circle cx="865" cy="526" r="3.4" fill="#000000"/></g></svg>