<svg xmlns="http://www.w3.org/2000/svg" width="1266" height="861" viewBox="0 0 1266 861"><rect width="1266" height="861" fill="#ffffff"/><rect x="4" y="4" width="1258" height="853" rx="14" fill="#fbfbfc" stroke="#e5e5e8" stroke-width="2"/><g><rect x="150" y="20" width="604" height="322" rx="12" fill="#0d6b8a" stroke="#0a4f66" stroke-width="2"/><rect x="156" y="26" width="592" height="310" rx="9" fill="none" stroke="#2a8aa8" stroke-width="1" opacity="0.5"/><rect x="136" y="60" width="60" height="52" rx="4" fill="#b9bcc2" stroke="#8a8d93" stroke-width="1.5"/><rect x="140" y="170" width="52" height="40" rx="8" fill="#1b1d22" stroke="#000" stroke-width="1"/><rect x="300" y="170" width="150" height="46" rx="3" fill="#15171b"/><circle cx="310" cy="193" r="4" fill="#2a2c30"/><circle cx="400" cy="60" r="7" fill="#c0392b"/><rect x="220" y="170" width="34" height="34" rx="2" fill="#15171b"/><text x="450" y="138" font-family="Arial Black, Arial, sans-serif" font-size="30" font-weight="800" fill="#fff" text-anchor="middle">ELEGOO</text><text x="450" y="162" font-family="Arial, Helvetica, sans-serif" font-size="15" font-weight="700" fill="#dfe7ea" text-anchor="middle">UNO R3</text><circle cx="168" cy="100" r="6" fill="#eef2f3" stroke="#9aa" stroke-width="1"/><circle cx="730" cy="60" r="6" fill="#eef2f3" stroke="#9aa" stroke-width="1"/><circle cx="730" cy="80" r="6" fill="#eef2f3" stroke="#9aa" stroke-width="1"/><circle cx="400" cy="324" r="6" fill="#eef2f3" stroke="#9aa" stroke-width="1"/><rect x="220" y="50" width="454" height="24" rx="3" fill="#111318"/><rect x="180" y="300" width="524" height="24" rx="3" fill="#111318"/><circle cx="356" cy="58" r="4.6" fill="#e6e8ea" stroke="#2a2a2a" stroke-width="1"/><circle cx="356" cy="58" r="1.8" fill="#111"/><text x="359" y="46" font-family="Arial, Helvetica, sans-serif" font-size="9.5" font-weight="400" fill="#f2f6f8" text-anchor="start" transform="rotate(-90 359 46)">AREF</text><circle cx="372" cy="58" r="4.6" fill="#e6e8ea" stroke="#2a2a2a" stroke-width="1"/><circle cx="372" cy="58" r="1.8" fill="#111"/><text x="375" y="46" font-family="Arial, Helvetica, sans-serif" font-size="9.5" font-weight="400" fill="#f2f6f8" text-anchor="start" transform="rotate(-90 375 46)">GND</text><circle cx="387" cy="58" r="4.6" fill="#e6e8ea" stroke="#2a2a2a" stroke-width="1"/><circle cx="387" cy="58" r="1.8" fill="#111"/><text x="390" y="46" font-family="Arial, Helvetica, sans-serif" font-size="9.5" font-weight="400" fill="#f2f6f8" text-anchor="start" transform="rotate(-90 390 46)">13</text><circle cx="403" cy="58" r="4.6" fill="#e6e8ea" stroke="#2a2a2a" stroke-width="1"/><circle cx="403" cy="58" r="1.8" fill="#111"/><text x="406" y="46" font-family="Arial, Helvetica, sans-serif" font-size="9.5" font-weight="400" fill="#f2f6f8" text-anchor="start" transform="rotate(-90 406 46)">12</text><circle cx="418" cy="58" r="4.6" fill="#e6e8ea" stroke="#2a2a2a" stroke-width="1"/><circle cx="418" cy="58" r="1.8" fill="#111"/><text x="421" y="46" font-family="Arial, Helvetica, sans-serif" font-size="9.5" font-weight="400" fill="#f2f6f8" text-anchor="start" transform="rotate(-90 421 46)">~11</text><circle cx="434" cy="58" r="4.6" fill="#e6e8ea" stroke="#2a2a2a" stroke-width="1"/><circle cx="434" cy="58" r="1.8" fill="#111"/><text x="437" y="46" font-family="Arial, Helvetica, sans-serif" font-size="9.5" font-weight="400" fill="#f2f6f8" text-anchor="start" transform="rotate(-90 437 46)">~10</text><circle cx="450" cy="58" r="4.6" fill="#e6e8ea" stroke="#2a2a2a" stroke-width="1"/><circle cx="450" cy="58" r="1.8" fill="#111"/><text x="453" y="46" font-family="Arial, Helvetica, sans-serif" font-size="9.5" font-weight="400" fill="#f2f6f8" text-anchor="start" transform="rotate(-90 453 46)">~9</text><circle cx="465" cy="58" r="4.6" fill="#e6e8ea" stroke="#2a2a2a" stroke-width="1"/><circle cx="465" cy="58" r="1.8" fill="#111"/><text x="468" y="46" font-family="Arial, Helvetica, sans-serif" font-size="9.5" font-weight="400" fill="#f2f6f8" text-anchor="start" transform="rotate(-90 468 46)">8</text><circle cx="493" cy="58" r="4.6" fill="#e6e8ea" stroke="#2a2a2a" stroke-width="1"/><circle cx="493" cy="58" r="1.8" fill="#111"/><text x="496" y="46" font-family="Arial, Helvetica, sans-serif" font-size="9.5" font-weight="400" fill="#f2f6f8" text-anchor="start" transform="rotate(-90 496 46)">7</text><circle cx="508" cy="58" r="4.6" fill="#e6e8ea" stroke="#2a2a2a" stroke-width="1"/><circle cx="508" cy="58" r="1.8" fill="#111"/><text x="511" y="46" font-family="Arial, Helvetica, sans-serif" font-size="9.5" font-weight="400" fill="#f2f6f8" text-anchor="start" transform="rotate(-90 511 46)">~6</text><circle cx="524" cy="58" r="4.6" fill="#e6e8ea" stroke="#2a2a2a" stroke-width="1"/><circle cx="524" cy="58" r="1.8" fill="#111"/><text x="527" y="46" font-family="Arial, Helvetica, sans-serif" font-size="9.5" font-weight="400" fill="#f2f6f8" text-anchor="start" transform="rotate(-90 527 46)">~5</text><circle cx="540" cy="58" r="4.6" fill="#e6e8ea" stroke="#2a2a2a" stroke-width="1"/><circle cx="540" cy="58" r="1.8" fill="#111"/><text x="543" y="46" font-family="Arial, Helvetica, sans-serif" font-size="9.5" font-weight="400" fill="#f2f6f8" text-anchor="start" transform="rotate(-90 543 46)">4</text><circle cx="555" cy="58" r="4.6" fill="#e6e8ea" stroke="#2a2a2a" stroke-width="1"/><circle cx="555" cy="58" r="1.8" fill="#111"/><text x="558" y="46" font-family="Arial, Helvetica, sans-serif" font-size="9.5" font-weight="400" fill="#f2f6f8" text-anchor="start" transform="rotate(-90 558 46)">~3</text><circle cx="571" cy="58" r="4.6" fill="#e6e8ea" stroke="#2a2a2a" stroke-width="1"/><circle cx="571" cy="58" r="1.8" fill="#111"/><text x="574" y="46" font-family="Arial, Helvetica, sans-serif" font-size="9.5" font-weight="400" fill="#f2f6f8" text-anchor="start" transform="rotate(-90 574 46)">2</text><circle cx="586" cy="58" r="4.6" fill="#e6e8ea" stroke="#2a2a2a" stroke-width="1"/><circle cx="586" cy="58" r="1.8" fill="#111"/><text x="589" y="46" font-family="Arial, Helvetica, sans-serif" font-size="9.5" font-weight="400" fill="#f2f6f8" text-anchor="start" transform="rotate(-90 589 46)">TX1</text><circle cx="602" cy="58" r="4.6" fill="#e6e8ea" stroke="#2a2a2a" stroke-width="1"/><circle cx="602" cy="58" r="1.8" fill="#111"/><text x="605" y="46" font-family="Arial, Helvetica, sans-serif" font-size="9.5" font-weight="400" fill="#f2f6f8" text-anchor="start" transform="rotate(-90 605 46)">RX0</text><circle cx="300" cy="306" r="4.6" fill="#e6e8ea" stroke="#2a2a2a" stroke-width="1"/><circle cx="300" cy="306" r="1.8" fill="#111"/><text x="303" y="352" font-family="Arial, Helvetica, sans-serif" font-size="9.5" font-weight="400" fill="#3a3a3f" text-anchor="end" transform="rotate(-90 303 352)">IOREF</text><circle cx="316" cy="306" r="4.6" fill="#e6e8ea" stroke="#2a2a2a" stroke-width="1"/><circle cx="316" cy="306" r="1.8" fill="#111"/><text x="319" y="352" font-family="Arial, Helvetica, sans-serif" font-size="9.5" font-weight="400" fill="#3a3a3f" text-anchor="end" transform="rotate(-90 319 352)">RESET</text><circle cx="331" cy="306" r="4.6" fill="#e6e8ea" stroke="#2a2a2a" stroke-width="1"/><circle cx="331" cy="306" r="1.8" fill="#111"/><text x="334" y="352" font-family="Arial, Helvetica, sans-serif" font-size="9.5" font-weight="400" fill="#3a3a3f" text-anchor="end" transform="rotate(-90 334 352)">3.3V</text><circle cx="347" cy="306" r="4.6" fill="#e6e8ea" stroke="#2a2a2a" stroke-width="1"/><circle cx="347" cy="306" r="1.8" fill="#111"/><text x="350" y="352" font-family="Arial, Helvetica, sans-serif" font-size="9.5" font-weight="400" fill="#3a3a3f" text-anchor="end" transform="rotate(-90 350 352)">5V</text><circle cx="362" cy="306" r="4.6" fill="#e6e8ea" stroke="#2a2a2a" stroke-width="1"/><circle cx="362" cy="306" r="1.8" fill="#111"/><text x="365" y="352" font-family="Arial, Helvetica, sans-serif" font-size="9.5" font-weight="400" fill="#3a3a3f" text-anchor="end" transform="rotate(-90 365 352)">GND</text><circle cx="378" cy="306" r="4.6" fill="#e6e8ea" stroke="#2a2a2a" stroke-width="1"/><circle cx="378" cy="306" r="1.8" fill="#111"/><text x="381" y="352" font-family="Arial, Helvetica, sans-serif" font-size="9.5" font-weight="400" fill="#3a3a3f" text-anchor="end" transform="rotate(-90 381 352)">GND</text><circle cx="394" cy="306" r="4.6" fill="#e6e8ea" stroke="#2a2a2a" stroke-width="1"/><circle cx="394" cy="306" r="1.8" fill="#111"/><text x="397" y="352" font-family="Arial, Helvetica, sans-serif" font-size="9.5" font-weight="400" fill="#3a3a3f" text-anchor="end" transform="rotate(-90 397 352)">Vin</text><circle cx="433" cy="306" r="4.6" fill="#e6e8ea" stroke="#2a2a2a" stroke-width="1"/><circle cx="433" cy="306" r="1.8" fill="#111"/><text x="436" y="352" font-family="Arial, Helvetica, sans-serif" font-size="9.5" font-weight="400" fill="#3a3a3f" text-anchor="end" transform="rotate(-90 436 352)">A0</text><circle cx="449" cy="306" r="4.6" fill="#e6e8ea" stroke="#2a2a2a" stroke-width="1"/><circle cx="449" cy="306" r="1.8" fill="#111"/><text x="452" y="352" font-family="Arial, Helvetica, sans-serif" font-size="9.5" font-weight="400" fill="#3a3a3f" text-anchor="end" transform="rotate(-90 452 352)">A1</text><circle cx="464" cy="306" r="4.6" fill="#e6e8ea" stroke="#2a2a2a" stroke-width="1"/><circle cx="464" cy="306" r="1.8" fill="#111"/><text x="467" y="352" font-family="Arial, Helvetica, sans-serif" font-size="9.5" font-weight="400" fill="#3a3a3f" text-anchor="end" transform="rotate(-90 467 352)">A2</text><circle cx="480" cy="306" r="4.6" fill="#e6e8ea" stroke="#2a2a2a" stroke-width="1"/><circle cx="480" cy="306" r="1.8" fill="#111"/><text x="483" y="352" font-family="Arial, Helvetica, sans-serif" font-size="9.5" font-weight="400" fill="#3a3a3f" text-anchor="end" transform="rotate(-90 483 352)">A3</text><circle cx="496" cy="306" r="4.6" fill="#e6e8ea" stroke="#2a2a2a" stroke-width="1"/><circle cx="496" cy="306" r="1.8" fill="#111"/><text x="499" y="352" font-family="Arial, Helvetica, sans-serif" font-size="9.5" font-weight="400" fill="#3a3a3f" text-anchor="end" transform="rotate(-90 499 352)">A4</text><circle cx="511" cy="306" r="4.6" fill="#e6e8ea" stroke="#2a2a2a" stroke-width="1"/><circle cx="511" cy="306" r="1.8" fill="#111"/><text x="514" y="352" font-family="Arial, Helvetica, sans-serif" font-size="9.5" font-weight="400" fill="#3a3a3f" text-anchor="end" transform="rotate(-90 514 352)">A5</text></g><rect x="820" y="360" width="300" height="300" rx="8" fill="#15171b" stroke="#000" stroke-width="2"/><rect x="830" y="370" width="48" height="40" rx="6" fill="#2a2d33" stroke="#444"/><text x="854" y="396" font-family="Arial, Helvetica, sans-serif" font-size="15" font-weight="700" fill="#e8e8ea" text-anchor="middle">1</text><rect x="892" y="370" width="48" height="40" rx="6" fill="#2a2d33" stroke="#444"/><text x="916" y="396" font-family="Arial, Helvetica, sans-serif" font-size="15" font-weight="700" fill="#e8e8ea" text-anchor="middle">2</text><rect x="954" y="370" width="48" height="40" rx="6" fill="#2a2d33" stroke="#444"/><text x="978" y="396" font-family="Arial, Helvetica, sans-serif" font-size="15" font-weight="700" fill="#e8e8ea" text-anchor="middle">3</text><rect x="1016" y="370" width="48" height="40" rx="6" fill="#2a2d33" stroke="#444"/><text x="1040" y="396" font-family="Arial, Helvetica, sans-serif" font-size="15" font-weight="700" fill="#e8e8ea" text-anchor="middle">A</text><rect x="830" y="426" width="48" height="40" rx="6" fill="#2a2d33" stroke="#444"/><text x="854" y="452" font-family="Arial, Helvetica, sans-serif" font-size="15" font-weight="700" fill="#e8e8ea" text-anchor="middle">4</text><rect x="892" y="426" width="48" height="40" rx="6" fill="#2a2d33" stroke="#444"/><text x="916" y="452" font-family="Arial, Helvetica, sans-serif" font-size="15" font-weight="700" fill="#e8e8ea" text-anchor="middle">5</text><rect x="954" y="426" width="48" height="40" rx="6" fill="#2a2d33" stroke="#444"/><text x="978" y="452" font-family="Arial, Helvetica, sans-serif" font-size="15" font-weight="700" fill="#e8e8ea" text-anchor="middle">6</text><rect x="1016" y="426" width="48" height="40" rx="6" fill="#2a2d33" stroke="#444"/><text x="1040" y="452" font-family="Arial, Helvetica, sans-serif" font-size="15" font-weight="700" fill="#e8e8ea" text-anchor="middle">B</text><rect x="830" y="482" width="48" height="40" rx="6" fill="#2a2d33" stroke="#444"/><text x="854" y="508" font-family="Arial, Helvetica, sans-serif" font-size="15" font-weight="700" fill="#e8e8ea" text-anchor="middle">7</text><rect x="892" y="482" width="48" height="40" rx="6" fill="#2a2d33" stroke="#444"/><text x="916" y="508" font-family="Arial, Helvetica, sans-serif" font-size="15" font-weight="700" fill="#e8e8ea" text-anchor="middle">8</text><rect x="954" y="482" width="48" height="40" rx="6" fill="#2a2d33" stroke="#444"/><text x="978" y="508" font-family="Arial, Helvetica, sans-serif" font-size="15" font-weight="700" fill="#e8e8ea" text-anchor="middle">9</text><rect x="1016" y="482" width="48" height="40" rx="6" fill="#2a2d33" stroke="#444"/><text x="1040" y="508" font-family="Arial, Helvetica, sans-serif" font-size="15" font-weight="700" fill="#e8e8ea" text-anchor="middle">C</text><rect x="830" y="538" width="48" height="40" rx="6" fill="#2a2d33" stroke="#444"/><text x="854" y="564" font-family="Arial, Helvetica, sans-serif" font-size="15" font-weight="700" fill="#e8e8ea" text-anchor="middle">*</text><rect x="892" y="538" width="48" height="40" rx="6" fill="#2a2d33" stroke="#444"/><text x="916" y="564" font-family="Arial, Helvetica, sans-serif" font-size="15" font-weight="700" fill="#e8e8ea" text-anchor="middle">0</text><rect x="954" y="538" width="48" height="40" rx="6" fill="#2a2d33" stroke="#444"/><text x="978" y="564" font-family="Arial, Helvetica, sans-serif" font-size="15" font-weight="700" fill="#e8e8ea" text-anchor="middle">#</text><rect x="1016" y="538" width="48" height="40" rx="6" fill="#2a2d33" stroke="#444"/><text x="1040" y="564" font-family="Arial, Helvetica, sans-serif" font-size="15" font-weight="700" fill="#e8e8ea" text-anchor="middle">D</text><circle cx="860" cy="666" r="4.4" fill="#d9dbde" stroke="#222"/><text x="860" y="684" font-family="Arial" font-size="9" text-anchor="middle" fill="#333">R1</text><circle cx="892" cy="666" r="4.4" fill="#d9dbde" stroke="#222"/><text x="892" y="684" font-family="Arial" font-size="9" text-anchor="middle" fill="#333">R2</text><circle cx="924" cy="666" r="4.4" fill="#d9dbde" stroke="#222"/><text x="924" y="684" font-family="Arial" font-size="9" text-anchor="middle" fill="#333">R3</text><circle cx="956" cy="666" r="4.4" fill="#d9dbde" stroke="#222"/><text x="956" y="684" font-family="Arial" font-size="9" text-anchor="middle" fill="#333">R4</text><circle cx="988" cy="666" r="4.4" fill="#d9dbde" stroke="#222"/><text x="988" y="684" font-family="Arial" font-size="9" text-anchor="middle" fill="#333">C1</text><circle cx="1020" cy="666" r="4.4" fill="#d9dbde" stroke="#222"/><text x="1020" y="684" font-family="Arial" font-size="9" text-anchor="middle" fill="#333">C2</text><circle cx="1052" cy="666" r="4.4" fill="#d9dbde" stroke="#222"/><text x="1052" y="684" font-family="Arial" font-size="9" text-anchor="middle" fill="#333">C3</text><circle cx="1084" cy="666" r="4.4" fill="#d9dbde" stroke="#222"/><text x="1084" y="684" font-family="Arial" font-size="9" text-anchor="middle" fill="#333">C4</text><g><path d="M 450 58 C 450 392.40000000000003, 860 392.40000000000003, 860 666" fill="none" stroke="#006308" stroke-width="8" stroke-linecap="round"/><path d="M 450 58 C 450 392.40000000000003, 860 392.40000000000003, 860 666" fill="none" stroke="#159a3f" stroke-width="6" stroke-linecap="round"/><circle cx="450" cy="58" r="3.4" fill="#007217"/><circle cx="860" cy="666" r="3.4" fill="#007217"/></g><g><path d="M 465 58 C 465 392.40000000000003, 892 392.40000000000003, 892 666" fill="none" stroke="#006308" stroke-width="8" stroke-linecap="round"/><path d="M 465 58 C 465 392.40000000000003, 892 392.40000000000003, 892 666" fill="none" stroke="#159a3f" stroke-width="6" stroke-linecap="round"/><circle cx="465" cy="58" r="3.4" fill="#007217"/><circle cx="892" cy="666" r="3.4" fill="#007217"/></g><g><path d="M 493 58 C 493 392.40000000000003, 924 392.40000000000003, 924 666" fill="none" stroke="#006308" stroke-width="8" stroke-linecap="round"/><path d="M 493 58 C 493 392.40000000000003, 924 392.40000000000003, 924 666" fill="none" stroke="#159a3f" stroke-width="6" stroke-linecap="round"/><circle cx="493" cy="58" r="3.4" fill="#007217"/><circle cx="924" cy="666" r="3.4" fill="#007217"/></g><g><path d="M 508 58 C 508 392.40000000000003, 956 392.40000000000003, 956 666" fill="none" stroke="#006308" stroke-width="8" stroke-linecap="round"/><path d="M 508 58 C 508 392.40000000000003, 956 392.40000000000003, 956 666" fill="none" stroke="#159a3f" stroke-width="6" stroke-linecap="round"/><circle cx="508" cy="58" r="3.4" fill="#007217"/><circle cx="956" cy="666" r="3.4" fill="#007217"/></g><g><path d="M 524 58 C 524 392.40000000000003, 988 392.40000000000003, 988 666" fill="none" stroke="#002c9f" stroke-width="8" stroke-linecap="round"/><path d="M 524 58 C 524 392.40000000000003, 988 392.40000000000003, 988 666" fill="none" stroke="#1c63d6" stroke-width="6" stroke-linecap="round"/><circle cx="524" cy="58" r="3.4" fill="#003bae"/><circle cx="988" cy="666" r="3.4" fill="#003bae"/></g><g><path d="M 540 58 C 540 392.40000000000003, 1020 392.40000000000003, 1020 666" fill="none" stroke="#002c9f" stroke-width="8" stroke-linecap="round"/><path d="M 540 58 C 540 392.40000000000003, 1020 392.40000000000003, 1020 666" fill="none" stroke="#1c63d6" stroke-width="6" stroke-linecap="round"/><circle cx="540" cy="58" r="3.4" fill="#003bae"/><circle cx="1020" cy="666" r="3.4" fill="#003bae"/></g><g><path d="M 555 58 C 555 392.40000000000003, 1052 392.40000000000003, 1052 666" fill="none" stroke="#002c9f" stroke-width="8" stroke-linecap="round"/><path d="M 555 58 C 555 392.40000000000003, 1052 392.40000000000003, 1052 666" fill="none" stroke="#1c63d6" stroke-width="6" stroke-linecap="round"/><circle cx="555" cy="58" r="3.4" fill="#003bae"/><circle cx="1052" cy="666" r="3.4" fill="#003bae"/></g><g><path d="M 571 58 C 571 392.40000000000003, 1084 392.40000000000003, 1084 666" fill="none" stroke="#002c9f" stroke-width="8" stroke-linecap="round"/><path d="M 571 58 C 571 392.40000000000003, 1084 392.40000000000003, 1084 666" fill="none" stroke="#1c63d6" stroke-width="6" stroke-linecap="round"/><circle cx="571" cy="58" r="3.4" fill="#003bae"/><circle cx="1084" cy="666" r="3.4" fill="#003bae"/></g></svg>