<svg xmlns="http://www.w3.org/2000/svg" width="1266" height="861" viewBox="0 0 1266 861"><rect width="1266" height="861" fill="#ffffff"/><rect x="4" y="4" width="1258" height="853" rx="14" fill="#fbfbfc" stroke="#e5e5e8" stroke-width="2"/><g><rect x="150" y="20" width="604" height="322" rx="12" fill="#0d6b8a" stroke="#0a4f66" stroke-width="2"/><rect x="156" y="26" width="592" height="310" rx="9" fill="none" stroke="#2a8aa8" stroke-width="1" opacity="0.5"/><rect x="136" y="60" width="60" height="52" rx="4" fill="#b9bcc2" stroke="#8a8d93" stroke-width="1.5"/><rect x="140" y="170" width="52" height="40" rx="8" fill="#1b1d22" stroke="#000" stroke-width="1"/><rect x="300" y="170" width="150" height="46" rx="3" fill="#15171b"/><circle cx="310" cy="193" r="4" fill="#2a2c30"/><circle cx="400" cy="60" r="7" fill="#c0392b"/><rect x="220" y="170" width="34" height="34" rx="2" fill="#15171b"/><text x="450" y="138" font-family="Arial Black, Arial, sans-serif" font-size="30" font-weight="800" fill="#fff" text-anchor="middle">ELEGOO</text><text x="450" y="162" font-family="Arial, Helvetica, sans-serif" font-size="15" font-weight="700" fill="#dfe7ea" text-anchor="middle">UNO R3</text><circle cx="168" cy="100" r="6" fill="#eef2f3" stroke="#9aa" stroke-width="1"/><circle cx="730" cy="60" r="6" fill="#eef2f3" stroke="#9aa" stroke-width="1"/><circle cx="730" cy="80" r="6" fill="#eef2f3" stroke="#9aa" stroke-width="1"/><circle cx="400" cy="324" r="6" fill="#eef2f3" stroke="#9aa" stroke-width="1"/><rect x="220" y="50" width="454" height="24" rx="3" fill="#111318"/><rect x="180" y="300" width="524" height="24" rx="3" fill="#111318"/><circle cx="356" cy="58" r="4.6" fill="#e6e8ea" stroke="#2a2a2a" stroke-width="1"/><circle cx="356" cy="58" r="1.8" fill="#111"/><text x="359" y="46" font-family="Arial, Helvetica, sans-serif" font-size="9.5" font-weight="400" fill="#f2f6f8" text-anchor="start" transform="rotate(-90 359 46)">AREF</text><circle cx="372" cy="58" r="4.6" fill="#e6e8ea" stroke="#2a2a2a" stroke-width="1"/><circle cx="372" cy="58" r="1.8" fill="#111"/><text x="375" y="46" font-family="Arial, Helvetica, sans-serif" font-size="9.5" font-weight="400" fill="#f2f6f8" text-anchor="start" transform="rotate(-90 375 46)">GND</text><circle cx="387" cy="58" r="4.6" fill="#e6e8ea" stroke="#2a2a2a" stroke-width="1"/><circle cx="387" cy="58" r="1.8" fill="#111"/><text x="390" y="46" font-family="Arial, Helvetica, sans-serif" font-size="9.5" font-weight="400" fill="#f2f6f8" text-anchor="start" transform="rotate(-90 390 46)">13</text><circle cx="403" cy="58" r="4.6" fill="#e6e8ea" stroke="#2a2a2a" stroke-width="1"/><circle cx="403" cy="58" r="1.8" fill="#111"/><text x="406" y="46" font-family="Arial, Helvetica, sans-serif" font-size="9.5" font-weight="400" fill="#f2f6f8" text-anchor="start" transform="rotate(-90 406 46)">12</text><circle cx="418" cy="58" r="4.6" fill="#e6e8ea" stroke="#2a2a2a" stroke-width="1"/><circle cx="418" cy="58" r="1.8" fill="#111"/><text x="421" y="46" font-family="Arial, Helvetica, sans-serif" font-size="9.5" font-weight="400" fill="#f2f6f8" text-anchor="start" transform="rotate(-90 421 46)">~11</text><circle cx="434" cy="58" r="4.6" fill="#e6e8ea" stroke="#2a2a2a" stroke-width="1"/><circle cx="434" cy="58" r="1.8" fill="#111"/><text x="437" y="46" font-family="Arial, Helvetica, sans-serif" font-size="9.5" font-weight="400" fill="#f2f6f8" text-anchor="start" transform="rotate(-90 437 46)">~10</text><circle cx="450" cy="58" r="4.6" fill="#e6e8ea" stroke="#2a2a2a" stroke-width="1"/><circle cx="450" cy="58" r="1.8" fill="#111"/><text x="453" y="46" font-family="Arial, Helvetica, sans-serif" font-size="9.5" font-weight="400" fill="#f2f6f8" text-anchor="start" transform="rotate(-90 453 46)">~9</text><circle cx="465" cy="58" r="4.6" fill="#e6e8ea" stroke="#2a2a2a" stroke-width="1"/><circle cx="465" cy="58" r="1.8" fill="#111"/><text x="468" y="46" font-family="Arial, Helvetica, sans-serif" font-size="9.5" font-weight="400" fill="#f2f6f8" text-anchor="start" transform="rotate(-90 468 46)">8</text><circle cx="493" cy="58" r="4.6" fill="#e6e8ea" stroke="#2a2a2a" stroke-width="1"/><circle cx="493" cy="58" r="1.8" fill="#111"/><text x="496" y="46" font-family="Arial, Helvetica, sans-serif" font-size="9.5" font-weight="400" fill="#f2f6f8" text-anchor="start" transform="rotate(-90 496 46)">7</text><circle cx="508" cy="58" r="4.6" fill="#e6e8ea" stroke="#2a2a2a" stroke-width="1"/><circle cx="508" cy="58" r="1.8" fill="#111"/><text x="511" y="46" font-family="Arial, Helvetica, sans-serif" font-size="9.5" font-weight="400" fill="#f2f6f8" text-anchor="start" transform="rotate(-90 511 46)">~6</text><circle cx="524" cy="58" r="4.6" fill="#e6e8ea" stroke="#2a2a2a" stroke-width="1"/><circle cx="524" cy="58" r="1.8" fill="#111"/><text x="527" y="46" font-family="Arial, Helvetica, sans-serif" font-size="9.5" font-weight="400" fill="#f2f6f8" text-anchor="start" transform="rotate(-90 527 46)">~5</text><circle cx="540" cy="58" r="4.6" fill="#e6e8ea" stroke="#2a2a2a" stroke-width="1"/><circle cx="540" cy="58" r="1.8" fill="#111"/><text x="543" y="46" font-family="Arial, Helvetica, sans-serif" font-size="9.5" font-weight="400" fill="#f2f6f8" text-anchor="start" transform="rotate(-90 543 46)">4</text><circle cx="555" cy="58" r="4.6" fill="#e6e8ea" stroke="#2a2a2a" stroke-width="1"/><circle cx="555" cy="58" r="1.8" fill="#111"/><text x="558" y="46" font-family="Arial, Helvetica, sans-serif" font-size="9.5" font-weight="400" fill="#f2f6f8" text-anchor="start" transform="rotate(-90 558 46)">~3</text><circle cx="571" cy="58" r="4.6" fill="#e6e8ea" stroke="#2a2a2a" stroke-width="1"/><circle cx="571" cy="58" r="1.8" fill="#111"/><text x="574" y="46" font-family="Arial, Helvetica, sans-serif" font-size="9.5" font-weight="400" fill="#f2f6f8" text-anchor="start" transform="rotate(-90 574 46)">2</text><circle cx="586" cy="58" r="4.6" fill="#e6e8ea" stroke="#2a2a2a" stroke-width="1"/><circle cx="586" cy="58" r="1.8" fill="#111"/><text x="589" y="46" font-family="Arial, Helvetica, sans-serif" font-size="9.5" font-weight="400" fill="#f2f6f8" text-anchor="start" transform="rotate(-90 589 46)">TX1</text><circle cx="602" cy="58" r="4.6" fill="#e6e8ea" stroke="#2a2a2a" stroke-width="1"/><circle cx="602" cy="58" r="1.8" fill="#111"/><text x="605" y="46" font-family="Arial, Helvetica, sans-serif" font-size="9.5" font-weight="400" fill="#f2f6f8" text-anchor="start" transform="rotate(-90 605 46)">RX0</text><circle cx="300" cy="306" r="4.6" fill="#e6e8ea" stroke="#2a2a2a" stroke-width="1"/><circle cx="300" cy="306" r="1.8" fill="#111"/><text x="303" y="352" font-family="Arial, Helvetica, sans-serif" font-size="9.5" font-weight="400" fill="#3a3a3f" text-anchor="end" transform="rotate(-90 303 352)">IOREF</text><circle cx="316" cy="306" r="4.6" fill="#e6e8ea" stroke="#2a2a2a" stroke-width="1"/><circle cx="316" cy="306" r="1.8" fill="#111"/><text x="319" y="352" font-family="Arial, Helvetica, sans-serif" font-size="9.5" font-weight="400" fill="#3a3a3f" text-anchor="end" transform="rotate(-90 319 352)">RESET</text><circle cx="331" cy="306" r="4.6" fill="#e6e8ea" stroke="#2a2a2a" stroke-width="1"/><circle cx="331" cy="306" r="1.8" fill="#111"/><text x="334" y="352" font-family="Arial, Helvetica, sans-serif" font-size="9.5" font-weight="400" fill="#3a3a3f" text-anchor="end" transform="rotate(-90 334 352)">3.3V</text><circle cx="347" cy="306" r="4.6" fill="#e6e8ea" stroke="#2a2a2a" stroke-width="1"/><circle cx="347" cy="306" r="1.8" fill="#111"/><text x="350" y="352" font-family="Arial, Helvetica, sans-serif" font-size="9.5" font-weight="400" fill="#3a3a3f" text-anchor="end" transform="rotate(-90 350 352)">5V</text><circle cx="362" cy="306" r="4.6" fill="#e6e8ea" stroke="#2a2a2a" stroke-width="1"/><circle cx="362" cy="306" r="1.8" fill="#111"/><text x="365" y="352" font-family="Arial, Helvetica, sans-serif" font-size="9.5" font-weight="400" fill="#3a3a3f" text-anchor="end" transform="rotate(-90 365 352)">GND</text><circle cx="378" cy="306" r="4.6" fill="#e6e8ea" stroke="#2a2a2a" stroke-width="1"/><circle cx="378" cy="306" r="1.8" fill="#111"/><text x="381" y="352" font-family="Arial, Helvetica, sans-serif" font-size="9.5" font-weight="400" fill="#3a3a3f" text-anchor="end" transform="rotate(-90 381 352)">GND</text><circle cx="394" cy="306" r="4.6" fill="#e6e8ea" stroke="#2a2a2a" stroke-width="1"/><circle cx="394" cy="306" r="1.8" fill="#111"/><text x="397" y="352" font-family="Arial, Helvetica, sans-serif" font-size="9.5" font-weight="400" fill="#3a3a3f" text-anchor="end" transform="rotate(-90 397 352)">Vin</text><circle cx="433" cy="306" r="4.6" fill="#e6e8ea" stroke="#2a2a2a" stroke-width="1"/><circle cx="433" cy="306" r="1.8" fill="#111"/><text x="436" y="352" font-family="Arial, Helvetica, sans-serif" font-size="9.5" font-weight="400" fill="#3a3a3f" text-anchor="end" transform="rotate(-90 436 352)">A0</text><circle cx="449" cy="306" r="4.6" fill="#e6e8ea" stroke="#2a2a2a" stroke-width="1"/><circle cx="449" cy="306" r="1.8" fill="#111"/><text x="452" y="352" font-family="Arial, Helvetica, sans-serif" font-size="9.5" font-weight="400" fill="#3a3a3f" text-anchor="end" transform="rotate(-90 452 352)">A1</text><circle cx="464" cy="306" r="4.6" fill="#e6e8ea" stroke="#2a2a2a" stroke-width="1"/><circle cx="464" cy="306" r="1.8" fill="#111"/><text x="467" y="352" font-family="Arial, Helvetica, sans-serif" font-size="9.5" font-weight="400" fill="#3a3a3f" text-anchor="end" transform="rotate(-90 467 352)">A2</text><circle cx="480" cy="306" r="4.6" fill="#e6e8ea" stroke="#2a2a2a" stroke-width="1"/><circle cx="480" cy="306" r="1.8" fill="#111"/><text x="483" y="352" font-family="Arial, Helvetica, sans-serif" font-size="9.5" font-weight="400" fill="#3a3a3f" text-anchor="end" transform="rotate(-90 483 352)">A3</text><circle cx="496" cy="306" r="4.6" fill="#e6e8ea" stroke="#2a2a2a" stroke-width="1"/><circle cx="496" cy="306" r="1.8" fill="#111"/><text x="499" y="352" font-family="Arial, Helvetica, sans-serif" font-size="9.5" font-weight="400" fill="#3a3a3f" text-anchor="end" transform="rotate(-90 499 352)">A4</text><circle cx="511" cy="306" r="4.6" fill="#e6e8ea" stroke="#2a2a2a" stroke-width="1"/><circle cx="511" cy="306" r="1.8" fill="#111"/><text x="514" y="352" font-family="Arial, Helvetica, sans-serif" font-size="9.5" font-weight="400" fill="#3a3a3f" text-anchor="end" transform="rotate(-90 514 352)">A5</text></g><g><rect x="468" y="452" width="300" height="150" rx="8" fill="#1a1a1e" stroke="#000"/><rect x="502" y="476" width="34" height="7" rx="3" fill="#e33"/><rect x="502" y="517" width="34" height="7" rx="3" fill="#e33"/><rect x="502" y="550" width="34" height="7" rx="3" fill="#e33"/><rect x="498" y="476" width="7" height="41" rx="3" fill="#e33"/><rect x="533" y="476" width="7" height="41" rx="3" fill="#e33"/><rect x="498" y="517" width="7" height="33" rx="3" fill="#e33"/><rect x="533" y="517" width="7" height="33" rx="3" fill="#e33"/><rect x="568" y="476" width="34" height="7" rx="3" fill="#e33"/><rect x="568" y="517" width="34" height="7" rx="3" fill="#e33"/><rect x="568" y="550" width="34" height="7" rx="3" fill="#e33"/><rect x="564" y="476" width="7" height="41" rx="3" fill="#e33"/><rect x="599" y="476" width="7" height="41" rx="3" fill="#e33"/><rect x="564" y="517" width="7" height="33" rx="3" fill="#e33"/><rect x="599" y="517" width="7" height="33" rx="3" fill="#e33"/><rect x="634" y="476" width="34" height="7" rx="3" fill="#e33"/><rect x="634" y="517" width="34" height="7" rx="3" fill="#e33"/><rect x="634" y="550" width="34" height="7" rx="3" fill="#e33"/><rect x="630" y="476" width="7" height="41" rx="3" fill="#e33"/><rect x="665" y="476" width="7" height="41" rx="3" fill="#e33"/><rect x="630" y="517" width="7" height="33" rx="3" fill="#e33"/><rect x="665" y="517" width="7" height="33" rx="3" fill="#e33"/><rect x="700" y="476" width="34" height="7" rx="3" fill="#e33"/><rect x="700" y="517" width="34" height="7" rx="3" fill="#e33"/><rect x="700" y="550" width="34" height="7" rx="3" fill="#e33"/><rect x="696" y="476" width="7" height="41" rx="3" fill="#e33"/><rect x="731" y="476" width="7" height="41" rx="3" fill="#e33"/><rect x="696" y="517" width="7" height="33" rx="3" fill="#e33"/><rect x="731" y="517" width="7" height="33" rx="3" fill="#e33"/><circle cx="482" cy="608" r="4" fill="#d9dbde" stroke="#222"/><text x="482" y="623" font-family="Arial, Helvetica, sans-serif" font-size="8" font-weight="700" fill="#333" text-anchor="middle">a</text><circle cx="506.72727272727275" cy="608" r="4" fill="#d9dbde" stroke="#222"/><text x="506.72727272727275" y="623" font-family="Arial, Helvetica, sans-serif" font-size="8" font-weight="700" fill="#333" text-anchor="middle">b</text><circle cx="531.4545454545455" cy="608" r="4" fill="#d9dbde" stroke="#222"/><text x="531.4545454545455" y="623" font-family="Arial, Helvetica, sans-serif" font-size="8" font-weight="700" fill="#333" text-anchor="middle">c</text><circle cx="556.1818181818182" cy="608" r="4" fill="#d9dbde" stroke="#222"/><text x="556.1818181818182" y="623" font-family="Arial, Helvetica, sans-serif" font-size="8" font-weight="700" fill="#333" text-anchor="middle">d</text><circle cx="580.9090909090909" cy="608" r="4" fill="#d9dbde" stroke="#222"/><text x="580.9090909090909" y="623" font-family="Arial, Helvetica, sans-serif" font-size="8" font-weight="700" fill="#333" text-anchor="middle">e</text><circle cx="605.6363636363636" cy="608" r="4" fill="#d9dbde" stroke="#222"/><text x="605.6363636363636" y="623" font-family="Arial, Helvetica, sans-serif" font-size="8" font-weight="700" fill="#333" text-anchor="middle">f</text><circle cx="630.3636363636364" cy="608" r="4" fill="#d9dbde" stroke="#222"/><text x="630.3636363636364" y="623" font-family="Arial, Helvetica, sans-serif" font-size="8" font-weight="700" fill="#333" text-anchor="middle">g</text><circle cx="655.0909090909091" cy="608" r="4" fill="#d9dbde" stroke="#222"/><text x="655.0909090909091" y="623" font-family="Arial, Helvetica, sans-serif" font-size="8" font-weight="700" fill="#333" text-anchor="middle">dp</text><circle cx="679.8181818181818" cy="608" r="4" fill="#d9dbde" stroke="#222"/><text x="679.8181818181818" y="623" font-family="Arial, Helvetica, sans-serif" font-size="8" font-weight="700" fill="#333" text-anchor="middle">D1</text><circle cx="704.5454545454545" cy="608" r="4" fill="#d9dbde" stroke="#222"/><text x="704.5454545454545" y="623" font-family="Arial, Helvetica, sans-serif" font-size="8" font-weight="700" fill="#333" text-anchor="middle">D2</text><circle cx="729.2727272727273" cy="608" r="4" fill="#d9dbde" stroke="#222"/><text x="729.2727272727273" y="623" font-family="Arial, Helvetica, sans-serif" font-size="8" font-weight="700" fill="#333" text-anchor="middle">D3</text><circle cx="754" cy="608" r="4" fill="#d9dbde" stroke="#222"/><text x="754" y="623" font-family="Arial, Helvetica, sans-serif" font-size="8" font-weight="700" fill="#333" text-anchor="middle">D4</text><text x="618" y="444" font-family="Arial, Helvetica, sans-serif" font-size="12" font-weight="700" fill="#333" text-anchor="middle">4-digit 7-segment display</text></g><g><path d="M 508 58 C 508 333, 482 333, 482 608" fill="none" stroke="#006308" stroke-width="8" stroke-linecap="round"/><path d="M 508 58 C 508 333, 482 333, 482 608" fill="none" stroke="#159a3f" stroke-width="6" stroke-linecap="round"/><circle cx="508" cy="58" r="3.4" fill="#007217"/><circle cx="482" cy="608" r="3.4" fill="#007217"/></g><g><path d="M 493 58 C 493 333, 507 333, 507 608" fill="none" stroke="#002c9f" stroke-width="8" stroke-linecap="round"/><path d="M 493 58 C 493 333, 507 333, 507 608" fill="none" stroke="#1c63d6" stroke-width="6" stroke-linecap="round"/><circle cx="493" cy="58" r="3.4" fill="#003bae"/><circle cx="507" cy="608" r="3.4" fill="#003bae"/></g><g><path d="M 465 58 C 465 333, 531 333, 531 608" fill="none" stroke="#ac7900" stroke-width="8" stroke-linecap="round"/><path d="M 465 58 C 465 333, 531 333, 531 608" fill="none" stroke="#e3b006" stroke-width="6" stroke-linecap="round"/><circle cx="465" cy="58" r="3.4" fill="#bb8800"/><circle cx="531" cy="608" r="3.4" fill="#bb8800"/></g><g><path d="M 450 58 C 450 333, 556 333, 556 608" fill="none" stroke="#ab3c00" stroke-width="8" stroke-linecap="round"/><path d="M 450 58 C 450 333, 556 333, 556 608" fill="none" stroke="#e2731b" stroke-width="6" stroke-linecap="round"/><circle cx="450" cy="58" r="3.4" fill="#ba4b00"/><circle cx="556" cy="608" r="3.4" fill="#ba4b00"/></g><g><path d="M 434 58 C 434 333, 581 333, 581 608" fill="none" stroke="#006308" stroke-width="8" stroke-linecap="round"/><path d="M 434 58 C 434 333, 581 333, 581 608" fill="none" stroke="#159a3f" stroke-width="6" stroke-linecap="round"/><circle cx="434" cy="58" r="3.4" fill="#007217"/><circle cx="581" cy="608" r="3.4" fill="#007217"/></g><g><path d="M 418 58 C 418 333, 606 333, 606 608" fill="none" stroke="#002c9f" stroke-width="8" stroke-linecap="round"/><path d="M 418 58 C 418 333, 606 333, 606 608" fill="none" stroke="#1c63d6" stroke-width="6" stroke-linecap="round"/><circle cx="418" cy="58" r="3.4" fill="#003bae"/><circle cx="606" cy="608" r="3.4" fill="#003bae"/></g><g><path d="M 403 58 C 403 333, 630 333, 630 608" fill="none" stroke="#ac7900" stroke-width="8" stroke-linecap="round"/><path d="M 403 58 C 403 333, 630 333, 630 608" fill="none" stroke="#e3b006" stroke-width="6" stroke-linecap="round"/><circle cx="403" cy="58" r="3.4" fill="#bb8800"/><circle cx="630" cy="608" r="3.4" fill="#bb8800"/></g><g><path d="M 387 58 C 387 333, 655 333, 655 608" fill="none" stroke="#ab3c00" stroke-width="8" stroke-linecap="round"/><path d="M 387 58 C 387 333, 655 333, 655 608" fill="none" stroke="#e2731b" stroke-width="6" stroke-linecap="round"/><circle cx="387" cy="58" r="3.4" fill="#ba4b00"/><circle cx="655" cy="608" r="3.4" fill="#ba4b00"/></g><g><path d="M 571 58 C 571 300, 680 300, 680 542" fill="none" stroke="#535860" stroke-width="8" stroke-linecap="round"/><path d="M 571 58 C 571 300, 680 300, 680 542" fill="none" stroke="#8a8f97" stroke-width="6" stroke-linecap="round"/><circle cx="571" cy="58" r="3.4" fill="#62676f"/><circle cx="680" cy="542" r="3.4" fill="#62676f"/></g><g transform="rotate(90 680 575)"><line x1="647" y1="575" x2="713" y2="575" stroke="#9aa" stroke-width="2.4"/><rect x="663" y="569.5" width="34" height="11" rx="4" fill="#d8b98c" stroke="#a5824f" stroke-width="1"/><rect x="670" y="569.5" width="3" height="11" fill="#d21f24"/><rect x="676.5" y="569.5" width="3" height="11" fill="#d21f24"/><rect x="683" y="569.5" width="3" height="11" fill="#6b3f14"/><rect x="689.5" y="569.5" width="3" height="11" fill="#c9a227"/></g><g><path d="M 555 58 C 555 300, 705 300, 705 542" fill="none" stroke="#535860" stroke-width="8" stroke-linecap="round"/><path d="M 555 58 C 555 300, 705 300, 705 542" fill="none" stroke="#8a8f97" stroke-width="6" stroke-linecap="round"/><circle cx="555" cy="58" r="3.4" fill="#62676f"/><circle cx="705" cy="542" r="3.4" fill="#62676f"/></g><g transform="rotate(90 705 575)"><line x1="672" y1="575" x2="738" y2="575" stroke="#9aa" stroke-width="2.4"/><rect x="688" y="569.5" width="34" height="11" rx="4" fill="#d8b98c" stroke="#a5824f" stroke-width="1"/><rect x="695" y="569.5" width="3" height="11" fill="#d21f24"/><rect x="701.5" y="569.5" width="3" height="11" fill="#d21f24"/><rect x="708" y="569.5" width="3" height="11" fill="#6b3f14"/><rect x="714.5" y="569.5" width="3" height="11" fill="#c9a227"/></g><g><path d="M 540 58 C 540 300, 729 300, 729 542" fill="none" stroke="#535860" stroke-width="8" stroke-linecap="round"/><path d="M 540 58 C 540 300, 729 300, 729 542" fill="none" stroke="#8a8f97" stroke-width="6" stroke-linecap="round"/><circle cx="540" cy="58" r="3.4" fill="#62676f"/><circle cx="729" cy="542" r="3.4" fill="#62676f"/></g><g transform="rotate(90 729 575)"><line x1="696" y1="575" x2="762" y2="575" stroke="#9aa" stroke-width="2.4"/><rect x="712" y="569.5" width="34" height="11" rx="4" fill="#d8b98c" stroke="#a5824f" stroke-width="1"/><rect x="719" y="569.5" width="3" height="11" fill="#d21f24"/><rect x="725.5" y="569.5" width="3" height="11" fill="#d21f24"/><rect x="732" y="569.5" width="3" height="11" fill="#6b3f14"/><rect x="738.5" y="569.5" width="3" height="11" fill="#c9a227"/></g><g><path d="M 524 58 C 524 300, 754 300, 754 542" fill="none" stroke="#535860" stroke-width="8" stroke-linecap="round"/><path d="M 524 58 C 524 300, 754 300, 754 542" fill="none" stroke="#8a8f97" stroke-width="6" stroke-linecap="round"/><circle cx="524" cy="58" r="3.4" fill="#62676f"/><circle cx="754" cy="542" r="3.4" fill="#62676f"/></g><g transform="rotate(90 754 575)"><line x1="721" y1="575" x2="787" y2="575" stroke="#9aa" stroke-width="2.4"/><rect x="737" y="569.5" width="34" height="11" rx="4" fill="#d8b98c" stroke="#a5824f" stroke-width="1"/><rect x="744" y="569.5" width="3" height="11" fill="#d21f24"/><rect x="750.5" y="569.5" width="3" height="11" fill="#d21f24"/><rect x="757" y="569.5" width="3" height="11" fill="#6b3f14"/><rect x="763.5" y="569.5" width="3" height="11" fill="#c9a227"/></g></svg>