<svg xmlns="http://www.w3.org/2000/svg" width="1180" height="660" viewBox="0 0 1180 660">
<rect width="1180" height="660" fill="#ffffff"/>
<rect x="4" y="4" width="1172" height="652" rx="14" fill="#fbfbfc" stroke="#e5e5e8" stroke-width="2"/>
<text x="590" y="38" font-family="Arial, Helvetica, sans-serif" font-size="19" font-weight="800" fill="#111" text-anchor="middle">1-Digit 7-Segment Display - real physical pins</text>
<text x="590" y="59" font-family="Arial, Helvetica, sans-serif" font-size="12" fill="#666" text-anchor="middle">Package pin numbers below match the display's own datasheet - not just segment letters</text>
<polygon points="428.5,183.5 511.5,183.5 520.0,192.0 511.5,200.5 428.5,200.5 420.0,192.0" fill="#f3b6ab" stroke="#b23a24" stroke-width="1.5"/>
<polygon points="536.5,204.5 536.5,257.5 545.0,266.0 553.5,257.5 553.5,204.5 545.0,196.0" fill="#f3b6ab" stroke="#b23a24" stroke-width="1.5"/>
<polygon points="536.5,282.5 536.5,335.5 545.0,344.0 553.5,335.5 553.5,282.5 545.0,274.0" fill="#f3b6ab" stroke="#b23a24" stroke-width="1.5"/>
<polygon points="428.5,339.5 511.5,339.5 520.0,348.0 511.5,356.5 428.5,356.5 420.0,348.0" fill="#f3b6ab" stroke="#b23a24" stroke-width="1.5"/>
<polygon points="386.5,282.5 386.5,335.5 395.0,344.0 403.5,335.5 403.5,282.5 395.0,274.0" fill="#f3b6ab" stroke="#b23a24" stroke-width="1.5"/>
<polygon points="386.5,204.5 386.5,257.5 395.0,266.0 403.5,257.5 403.5,204.5 395.0,196.0" fill="#f3b6ab" stroke="#b23a24" stroke-width="1.5"/>
<polygon points="428.5,261.5 511.5,261.5 520.0,270 511.5,278.5 428.5,278.5 420.0,270" fill="#f3b6ab" stroke="#b23a24" stroke-width="1.5"/>
<circle cx="567.0" cy="353.0" r="8" fill="#f3b6ab" stroke="#b23a24" stroke-width="1.5"/>
<text x="567.0" y="357.0" font-family="Arial" font-size="10" fill="#7a2417" text-anchor="middle" font-weight="700">dp</text>
<text x="470" y="195.0" font-family="Arial" font-size="14" font-weight="800" fill="#333" text-anchor="middle">A</text>
<text x="569.0" y="236.0" font-family="Arial" font-size="14" font-weight="800" fill="#333" text-anchor="middle">B</text>
<text x="569.0" y="314.0" font-family="Arial" font-size="14" font-weight="800" fill="#333" text-anchor="middle">C</text>
<text x="470" y="355.0" font-family="Arial" font-size="14" font-weight="800" fill="#333" text-anchor="middle">D</text>
<text x="371.0" y="314.0" font-family="Arial" font-size="14" font-weight="800" fill="#333" text-anchor="middle">E</text>
<text x="371.0" y="236.0" font-family="Arial" font-size="14" font-weight="800" fill="#333" text-anchor="middle">F</text>
<text x="398.0" y="275" font-family="Arial" font-size="14" font-weight="800" fill="#333" text-anchor="middle">G</text>
<line x1="320" y1="188.0" x2="320" y2="92.0" stroke="#888" stroke-width="2"/>
<circle cx="320" cy="92.0" r="8" fill="#eee" stroke="#333" stroke-width="1.5"/>
<text x="320" y="78.0" font-family="Arial" font-size="14" font-weight="800" fill="#111" text-anchor="middle">10</text>
<text x="320" y="63.0" font-family="Arial" font-size="10" fill="#666" text-anchor="middle">G</text>
<line x1="395" y1="188.0" x2="395" y2="92.0" stroke="#888" stroke-width="2"/>
<circle cx="395" cy="92.0" r="8" fill="#eee" stroke="#333" stroke-width="1.5"/>
<text x="395" y="78.0" font-family="Arial" font-size="14" font-weight="800" fill="#111" text-anchor="middle">9</text>
<text x="395" y="63.0" font-family="Arial" font-size="10" fill="#666" text-anchor="middle">F</text>
<line x1="470" y1="188.0" x2="470" y2="92.0" stroke="#888" stroke-width="2"/>
<circle cx="470" cy="92.0" r="8" fill="#eee" stroke="#333" stroke-width="1.5"/>
<text x="470" y="78.0" font-family="Arial" font-size="14" font-weight="800" fill="#111" text-anchor="middle">8</text>
<text x="470" y="63.0" font-family="Arial" font-size="10" fill="#666" text-anchor="middle">COM</text>
<line x1="545" y1="188.0" x2="545" y2="92.0" stroke="#888" stroke-width="2"/>
<circle cx="545" cy="92.0" r="8" fill="#eee" stroke="#333" stroke-width="1.5"/>
<text x="545" y="78.0" font-family="Arial" font-size="14" font-weight="800" fill="#111" text-anchor="middle">7</text>
<text x="545" y="63.0" font-family="Arial" font-size="10" fill="#666" text-anchor="middle">A</text>
<line x1="620" y1="188.0" x2="620" y2="92.0" stroke="#888" stroke-width="2"/>
<circle cx="620" cy="92.0" r="8" fill="#eee" stroke="#333" stroke-width="1.5"/>
<text x="620" y="78.0" font-family="Arial" font-size="14" font-weight="800" fill="#111" text-anchor="middle">6</text>
<text x="620" y="63.0" font-family="Arial" font-size="10" fill="#666" text-anchor="middle">B</text>
<line x1="320" y1="352.0" x2="320" y2="428.0" stroke="#888" stroke-width="2"/>
<circle cx="320" cy="428.0" r="8" fill="#eee" stroke="#333" stroke-width="1.5"/>
<text x="320" y="450.0" font-family="Arial" font-size="14" font-weight="800" fill="#111" text-anchor="middle">1</text>
<text x="320" y="465.0" font-family="Arial" font-size="10" fill="#666" text-anchor="middle">E</text>
<line x1="395" y1="352.0" x2="395" y2="428.0" stroke="#888" stroke-width="2"/>
<circle cx="395" cy="428.0" r="8" fill="#eee" stroke="#333" stroke-width="1.5"/>
<text x="395" y="450.0" font-family="Arial" font-size="14" font-weight="800" fill="#111" text-anchor="middle">2</text>
<text x="395" y="465.0" font-family="Arial" font-size="10" fill="#666" text-anchor="middle">D</text>
<line x1="470" y1="352.0" x2="470" y2="428.0" stroke="#888" stroke-width="2"/>
<circle cx="470" cy="428.0" r="8" fill="#eee" stroke="#333" stroke-width="1.5"/>
<text x="470" y="450.0" font-family="Arial" font-size="14" font-weight="800" fill="#111" text-anchor="middle">3</text>
<text x="470" y="465.0" font-family="Arial" font-size="10" fill="#666" text-anchor="middle">COM</text>
<line x1="545" y1="352.0" x2="545" y2="428.0" stroke="#888" stroke-width="2"/>
<circle cx="545" cy="428.0" r="8" fill="#eee" stroke="#333" stroke-width="1.5"/>
<text x="545" y="450.0" font-family="Arial" font-size="14" font-weight="800" fill="#111" text-anchor="middle">4</text>
<text x="545" y="465.0" font-family="Arial" font-size="10" fill="#666" text-anchor="middle">C</text>
<line x1="620" y1="352.0" x2="620" y2="428.0" stroke="#888" stroke-width="2"/>
<circle cx="620" cy="428.0" r="8" fill="#eee" stroke="#333" stroke-width="1.5"/>
<text x="620" y="450.0" font-family="Arial" font-size="14" font-weight="800" fill="#111" text-anchor="middle">5</text>
<text x="620" y="465.0" font-family="Arial" font-size="10" fill="#666" text-anchor="middle">DP</text>
<path d="M 545 92.0 L 545 490" fill="none" stroke="#d21f24" stroke-width="2.5" opacity="0.85"/>
<path d="M 545 490 L 90.0 490 L 90.0 532" fill="none" stroke="#d21f24" stroke-width="2.5" opacity="0.85"/>
<rect x="35.0" y="532" width="110" height="56" rx="7" fill="#d21f2418" stroke="#d21f24" stroke-width="1.5"/>
<text x="90.0" y="554" font-family="Arial" font-size="14" font-weight="800" fill="#d21f24" text-anchor="middle">D2</text>
<text x="90.0" y="573" font-family="Arial" font-size="10.5" fill="#555" text-anchor="middle">pin 7 (A)</text>
<path d="M 620 92.0 L 620 490" fill="none" stroke="#1c63d6" stroke-width="2.5" opacity="0.85"/>
<path d="M 620 490 L 232.9 490 L 232.9 532" fill="none" stroke="#1c63d6" stroke-width="2.5" opacity="0.85"/>
<rect x="177.9" y="532" width="110" height="56" rx="7" fill="#1c63d618" stroke="#1c63d6" stroke-width="1.5"/>
<text x="232.9" y="554" font-family="Arial" font-size="14" font-weight="800" fill="#1c63d6" text-anchor="middle">D3</text>
<text x="232.9" y="573" font-family="Arial" font-size="10.5" fill="#555" text-anchor="middle">pin 6 (B)</text>
<path d="M 545 428.0 L 545 490" fill="none" stroke="#e3b006" stroke-width="2.5" opacity="0.85"/>
<path d="M 545 490 L 375.7 490 L 375.7 532" fill="none" stroke="#e3b006" stroke-width="2.5" opacity="0.85"/>
<rect x="320.7" y="532" width="110" height="56" rx="7" fill="#e3b00618" stroke="#e3b006" stroke-width="1.5"/>
<text x="375.7" y="554" font-family="Arial" font-size="14" font-weight="800" fill="#e3b006" text-anchor="middle">D4</text>
<text x="375.7" y="573" font-family="Arial" font-size="10.5" fill="#555" text-anchor="middle">pin 4 (C)</text>
<path d="M 395 428.0 L 395 490" fill="none" stroke="#159a3f" stroke-width="2.5" opacity="0.85"/>
<path d="M 395 490 L 518.6 490 L 518.6 532" fill="none" stroke="#159a3f" stroke-width="2.5" opacity="0.85"/>
<rect x="463.6" y="532" width="110" height="56" rx="7" fill="#159a3f18" stroke="#159a3f" stroke-width="1.5"/>
<text x="518.6" y="554" font-family="Arial" font-size="14" font-weight="800" fill="#159a3f" text-anchor="middle">D5</text>
<text x="518.6" y="573" font-family="Arial" font-size="10.5" fill="#555" text-anchor="middle">pin 2 (D)</text>
<path d="M 320 428.0 L 320 490" fill="none" stroke="#8a3fe0" stroke-width="2.5" opacity="0.85"/>
<path d="M 320 490 L 661.4 490 L 661.4 532" fill="none" stroke="#8a3fe0" stroke-width="2.5" opacity="0.85"/>
<rect x="606.4" y="532" width="110" height="56" rx="7" fill="#8a3fe018" stroke="#8a3fe0" stroke-width="1.5"/>
<text x="661.4" y="554" font-family="Arial" font-size="14" font-weight="800" fill="#8a3fe0" text-anchor="middle">D6</text>
<text x="661.4" y="573" font-family="Arial" font-size="10.5" fill="#555" text-anchor="middle">pin 1 (E)</text>
<path d="M 395 92.0 L 395 490" fill="none" stroke="#e2731b" stroke-width="2.5" opacity="0.85"/>
<path d="M 395 490 L 804.3 490 L 804.3 532" fill="none" stroke="#e2731b" stroke-width="2.5" opacity="0.85"/>
<rect x="749.3" y="532" width="110" height="56" rx="7" fill="#e2731b18" stroke="#e2731b" stroke-width="1.5"/>
<text x="804.3" y="554" font-family="Arial" font-size="14" font-weight="800" fill="#e2731b" text-anchor="middle">D7</text>
<text x="804.3" y="573" font-family="Arial" font-size="10.5" fill="#555" text-anchor="middle">pin 9 (F)</text>
<path d="M 320 92.0 L 320 490" fill="none" stroke="#0aa8a0" stroke-width="2.5" opacity="0.85"/>
<path d="M 320 490 L 947.1 490 L 947.1 532" fill="none" stroke="#0aa8a0" stroke-width="2.5" opacity="0.85"/>
<rect x="892.1" y="532" width="110" height="56" rx="7" fill="#0aa8a018" stroke="#0aa8a0" stroke-width="1.5"/>
<text x="947.1" y="554" font-family="Arial" font-size="14" font-weight="800" fill="#0aa8a0" text-anchor="middle">D8</text>
<text x="947.1" y="573" font-family="Arial" font-size="10.5" fill="#555" text-anchor="middle">pin 10 (G)</text>
<path d="M 470 428.0 L 470 490" fill="none" stroke="#4b5563" stroke-width="2.5" opacity="0.85"/>
<path d="M 470 490 L 1090.0 490 L 1090.0 532" fill="none" stroke="#4b5563" stroke-width="2.5" opacity="0.85"/>
<rect x="1035.0" y="532" width="110" height="56" rx="7" fill="#4b556318" stroke="#4b5563" stroke-width="1.5"/>
<text x="1090.0" y="554" font-family="Arial" font-size="14" font-weight="800" fill="#4b5563" text-anchor="middle">→ GND</text>
<text x="1090.0" y="573" font-family="Arial" font-size="10.5" fill="#555" text-anchor="middle">pin 3 or 8 (COM)</text>
</svg>
